<svg width="131" height="38" viewBox="0 0 131 38" fill="none" xmlns="http://www.w3.org/2000/svg">
<rect y="0.5" width="37" height="37" rx="8" fill="url(#paint0_linear_10_211)"/>
<path d="M51.65 25.5V11.5H54.97V25.5H51.65ZM57.5811 25.5V15.3H60.8611V16.38C61.2411 15.9 61.6911 15.55 62.2111 15.33C62.7311 15.11 63.2778 15 63.8511 15C64.8111 15 65.6011 15.19 66.2211 15.57C66.8411 15.9433 67.2978 16.43 67.5911 17.03C67.8911 17.6233 68.0411 18.2533 68.0411 18.92V25.5H64.7611V19.95C64.7611 19.3367 64.5978 18.8533 64.2711 18.5C63.9511 18.1467 63.4778 17.97 62.8511 17.97C62.4511 17.97 62.1011 18.0567 61.8011 18.23C61.5078 18.4033 61.2778 18.65 61.1111 18.97C60.9444 19.2833 60.8611 19.6433 60.8611 20.05V25.5H57.5811ZM72.4717 25.5L68.8717 15.3H72.3917L74.5617 22.67H74.2017L76.3217 15.3H79.7617L76.2917 25.5H72.4717ZM85.615 25.8C84.495 25.8 83.5117 25.5767 82.665 25.13C81.8183 24.6767 81.1583 24.0467 80.685 23.24C80.2117 22.4267 79.975 21.4767 79.975 20.39C79.975 19.6033 80.1117 18.88 80.385 18.22C80.665 17.56 81.0517 16.99 81.545 16.51C82.045 16.03 82.6317 15.66 83.305 15.4C83.985 15.1333 84.7317 15 85.545 15C86.4383 15 87.235 15.16 87.935 15.48C88.635 15.7933 89.2117 16.2333 89.665 16.8C90.125 17.36 90.4417 18.0233 90.615 18.79C90.7883 19.55 90.795 20.3767 90.635 21.27H82.975C82.9817 21.67 83.1017 22.02 83.335 22.32C83.5683 22.62 83.8883 22.8567 84.295 23.03C84.7017 23.1967 85.175 23.28 85.715 23.28C86.315 23.28 86.885 23.2033 87.425 23.05C87.965 22.89 88.4817 22.6467 88.975 22.32L90.005 24.54C89.6917 24.78 89.285 24.9967 88.785 25.19C88.2917 25.3767 87.765 25.5233 87.205 25.63C86.6517 25.7433 86.1217 25.8 85.615 25.8ZM83.175 19.06H87.515C87.5017 18.5467 87.3117 18.1367 86.945 17.83C86.5783 17.5233 86.0817 17.37 85.455 17.37C84.8217 17.37 84.295 17.5233 83.875 17.83C83.4617 18.1367 83.2283 18.5467 83.175 19.06ZM92.26 25.5V15.3H95.54V16.38C95.92 15.9 96.37 15.55 96.89 15.33C97.41 15.11 97.9567 15 98.53 15C99.49 15 100.28 15.19 100.9 15.57C101.52 15.9433 101.977 16.43 102.27 17.03C102.57 17.6233 102.72 18.2533 102.72 18.92V25.5H99.44V19.95C99.44 19.3367 99.2767 18.8533 98.95 18.5C98.63 18.1467 98.1567 17.97 97.53 17.97C97.13 17.97 96.78 18.0567 96.48 18.23C96.1867 18.4033 95.9567 18.65 95.79 18.97C95.6233 19.2833 95.54 19.6433 95.54 20.05V25.5H92.26ZM109.241 25.8C108.107 25.8 107.217 25.4833 106.571 24.85C105.924 24.21 105.601 23.2567 105.601 21.99V12.38H108.881V15.3H111.271V17.9H108.881V21.42C108.881 21.9667 109.001 22.35 109.241 22.57C109.481 22.79 109.791 22.9 110.171 22.9C110.377 22.9 110.581 22.8767 110.781 22.83C110.987 22.7767 111.177 22.7 111.351 22.6L111.771 25.17C111.457 25.3433 111.081 25.49 110.641 25.61C110.201 25.7367 109.734 25.8 109.241 25.8ZM103.621 17.9V15.3H105.901V17.9H103.621ZM113.335 25.5V15.3H116.615V25.5H113.335ZM114.975 13.79C114.448 13.79 113.988 13.6267 113.595 13.3C113.208 12.9667 113.015 12.52 113.015 11.96C113.015 11.4 113.208 10.9567 113.595 10.63C113.988 10.3033 114.448 10.14 114.975 10.14C115.508 10.14 115.968 10.3033 116.355 10.63C116.742 10.9567 116.935 11.4 116.935 11.96C116.935 12.52 116.742 12.9667 116.355 13.3C115.968 13.6267 115.508 13.79 114.975 13.79ZM123.821 25.8C122.707 25.8 121.724 25.5567 120.871 25.07C120.017 24.5767 119.347 23.92 118.861 23.1C118.381 22.28 118.141 21.38 118.141 20.4C118.141 19.6867 118.277 19.0067 118.551 18.36C118.831 17.7067 119.224 17.13 119.731 16.63C120.237 16.1233 120.837 15.7267 121.531 15.44C122.224 15.1467 122.987 15 123.821 15C124.934 15 125.917 15.2467 126.771 15.74C127.624 16.2267 128.291 16.88 128.771 17.7C129.251 18.52 129.491 19.42 129.491 20.4C129.491 21.1133 129.354 21.7967 129.081 22.45C128.807 23.0967 128.417 23.67 127.911 24.17C127.404 24.67 126.804 25.0667 126.111 25.36C125.417 25.6533 124.654 25.8 123.821 25.8ZM123.821 22.98C124.287 22.98 124.707 22.8767 125.081 22.67C125.454 22.4567 125.747 22.1567 125.961 21.77C126.174 21.3833 126.281 20.9267 126.281 20.4C126.281 19.8667 126.174 19.41 125.961 19.03C125.754 18.6433 125.464 18.3467 125.091 18.14C124.717 17.9267 124.294 17.82 123.821 17.82C123.347 17.82 122.924 17.9267 122.551 18.14C122.177 18.3467 121.884 18.6433 121.671 19.03C121.457 19.41 121.351 19.8667 121.351 20.4C121.351 20.9267 121.457 21.3833 121.671 21.77C121.891 22.1567 122.187 22.4567 122.561 22.67C122.934 22.8767 123.354 22.98 123.821 22.98Z" fill="white"/>
<path d="M7.32 15.5V9.9H9.848V15.5H7.32ZM10.3319 15.5V9.9H12.8599L18.4439 13.1V9.9H20.9719V15.5H18.4439L12.8599 12.3V15.5H10.3319Z" fill="white"/>
<defs>
<linearGradient id="paint0_linear_10_211" x1="2.035" y1="-5.235" x2="24.605" y2="37.5" gradientUnits="userSpaceOnUse">
<stop stop-color="#C0BDFE"/>
<stop offset="1" stop-color="#211B73"/>
</linearGradient>
</defs>
</svg>
