<svg width="131" height="37" viewBox="0 0 131 37" fill="none" xmlns="http://www.w3.org/2000/svg">
<rect width="37" height="37" rx="8" fill="url(#paint0_linear_4_181)"/>
<path d="M51.65 25V11H54.97V25H51.65ZM57.5811 25V14.8H60.8611V15.88C61.2411 15.4 61.6911 15.05 62.2111 14.83C62.7311 14.61 63.2778 14.5 63.8511 14.5C64.8111 14.5 65.6011 14.69 66.2211 15.07C66.8411 15.4433 67.2978 15.93 67.5911 16.53C67.8911 17.1233 68.0411 17.7533 68.0411 18.42V25H64.7611V19.45C64.7611 18.8367 64.5978 18.3533 64.2711 18C63.9511 17.6467 63.4778 17.47 62.8511 17.47C62.4511 17.47 62.1011 17.5567 61.8011 17.73C61.5078 17.9033 61.2778 18.15 61.1111 18.47C60.9444 18.7833 60.8611 19.1433 60.8611 19.55V25H57.5811ZM72.4717 25L68.8717 14.8H72.3917L74.5617 22.17H74.2017L76.3217 14.8H79.7617L76.2917 25H72.4717ZM85.615 25.3C84.495 25.3 83.5117 25.0767 82.665 24.63C81.8183 24.1767 81.1583 23.5467 80.685 22.74C80.2117 21.9267 79.975 20.9767 79.975 19.89C79.975 19.1033 80.1117 18.38 80.385 17.72C80.665 17.06 81.0517 16.49 81.545 16.01C82.045 15.53 82.6317 15.16 83.305 14.9C83.985 14.6333 84.7317 14.5 85.545 14.5C86.4383 14.5 87.235 14.66 87.935 14.98C88.635 15.2933 89.2117 15.7333 89.665 16.3C90.125 16.86 90.4417 17.5233 90.615 18.29C90.7883 19.05 90.795 19.8767 90.635 20.77H82.975C82.9817 21.17 83.1017 21.52 83.335 21.82C83.5683 22.12 83.8883 22.3567 84.295 22.53C84.7017 22.6967 85.175 22.78 85.715 22.78C86.315 22.78 86.885 22.7033 87.425 22.55C87.965 22.39 88.4817 22.1467 88.975 21.82L90.005 24.04C89.6917 24.28 89.285 24.4967 88.785 24.69C88.2917 24.8767 87.765 25.0233 87.205 25.13C86.6517 25.2433 86.1217 25.3 85.615 25.3ZM83.175 18.56H87.515C87.5017 18.0467 87.3117 17.6367 86.945 17.33C86.5783 17.0233 86.0817 16.87 85.455 16.87C84.8217 16.87 84.295 17.0233 83.875 17.33C83.4617 17.6367 83.2283 18.0467 83.175 18.56ZM92.26 25V14.8H95.54V15.88C95.92 15.4 96.37 15.05 96.89 14.83C97.41 14.61 97.9567 14.5 98.53 14.5C99.49 14.5 100.28 14.69 100.9 15.07C101.52 15.4433 101.977 15.93 102.27 16.53C102.57 17.1233 102.72 17.7533 102.72 18.42V25H99.44V19.45C99.44 18.8367 99.2767 18.3533 98.95 18C98.63 17.6467 98.1567 17.47 97.53 17.47C97.13 17.47 96.78 17.5567 96.48 17.73C96.1867 17.9033 95.9567 18.15 95.79 18.47C95.6233 18.7833 95.54 19.1433 95.54 19.55V25H92.26ZM109.241 25.3C108.107 25.3 107.217 24.9833 106.571 24.35C105.924 23.71 105.601 22.7567 105.601 21.49V11.88H108.881V14.8H111.271V17.4H108.881V20.92C108.881 21.4667 109.001 21.85 109.241 22.07C109.481 22.29 109.791 22.4 110.171 22.4C110.377 22.4 110.581 22.3767 110.781 22.33C110.987 22.2767 111.177 22.2 111.351 22.1L111.771 24.67C111.457 24.8433 111.081 24.99 110.641 25.11C110.201 25.2367 109.734 25.3 109.241 25.3ZM103.621 17.4V14.8H105.901V17.4H103.621ZM113.335 25V14.8H116.615V25H113.335ZM114.975 13.29C114.448 13.29 113.988 13.1267 113.595 12.8C113.208 12.4667 113.015 12.02 113.015 11.46C113.015 10.9 113.208 10.4567 113.595 10.13C113.988 9.80333 114.448 9.64 114.975 9.64C115.508 9.64 115.968 9.80333 116.355 10.13C116.742 10.4567 116.935 10.9 116.935 11.46C116.935 12.02 116.742 12.4667 116.355 12.8C115.968 13.1267 115.508 13.29 114.975 13.29ZM123.821 25.3C122.707 25.3 121.724 25.0567 120.871 24.57C120.017 24.0767 119.347 23.42 118.861 22.6C118.381 21.78 118.141 20.88 118.141 19.9C118.141 19.1867 118.277 18.5067 118.551 17.86C118.831 17.2067 119.224 16.63 119.731 16.13C120.237 15.6233 120.837 15.2267 121.531 14.94C122.224 14.6467 122.987 14.5 123.821 14.5C124.934 14.5 125.917 14.7467 126.771 15.24C127.624 15.7267 128.291 16.38 128.771 17.2C129.251 18.02 129.491 18.92 129.491 19.9C129.491 20.6133 129.354 21.2967 129.081 21.95C128.807 22.5967 128.417 23.17 127.911 23.67C127.404 24.17 126.804 24.5667 126.111 24.86C125.417 25.1533 124.654 25.3 123.821 25.3ZM123.821 22.48C124.287 22.48 124.707 22.3767 125.081 22.17C125.454 21.9567 125.747 21.6567 125.961 21.27C126.174 20.8833 126.281 20.4267 126.281 19.9C126.281 19.3667 126.174 18.91 125.961 18.53C125.754 18.1433 125.464 17.8467 125.091 17.64C124.717 17.4267 124.294 17.32 123.821 17.32C123.347 17.32 122.924 17.4267 122.551 17.64C122.177 17.8467 121.884 18.1433 121.671 18.53C121.457 18.91 121.351 19.3667 121.351 19.9C121.351 20.4267 121.457 20.8833 121.671 21.27C121.891 21.6567 122.187 21.9567 122.561 22.17C122.934 22.3767 123.354 22.48 123.821 22.48Z" fill="black"/>
<path d="M7.32 15V9.4H9.848V15H7.32ZM10.3319 15V9.4H12.8599L18.4439 12.6V9.4H20.9719V15H18.4439L12.8599 11.8V15H10.3319Z" fill="white"/>
<defs>
<linearGradient id="paint0_linear_4_181" x1="2.035" y1="-5.735" x2="24.605" y2="37" gradientUnits="userSpaceOnUse">
<stop stop-color="#C0BDFE"/>
<stop offset="1" stop-color="#211B73"/>
</linearGradient>
</defs>
</svg>
